mtllib material.mtl
usemtl material_0
v 0.25638900 0.89437400 0.33688400
v 0.25638900 0.89437400 0.33688400
v 0.25638900 0.89437400 0.33688400
v 0.25638900 0.90018900 0.33688400
v 0.25638900 0.90018900 0.33688400
v 0.25638900 0.90018900 0.33688400
v 0.25638900 0.89437400 0.25434200
v 0.25638900 0.89437400 0.25434200
v 0.25638900 0.89437400 0.25434200
v 0.25638900 0.90018900 0.25434200
v 0.25638900 0.90018900 0.25434200
v 0.25638900 0.90018900 0.25434200
v 0.28929400 0.89437400 0.33688400
v 0.28929400 0.89437400 0.33688400
v 0.28929400 0.89437400 0.33688400
v 0.28929400 0.90018900 0.33688400
v 0.28929400 0.90018900 0.33688400
v 0.28929400 0.90018900 0.33688400
v 0.28929400 0.89437400 0.25434200
v 0.28929400 0.89437400 0.25434200
v 0.28929400 0.90018900 0.25434200
v 0.28929400 0.90018900 0.25434200
v 0.26785500 0.89437400 0.25434200
v 0.26785500 0.89437400 0.25434200
v 0.26785500 0.90018900 0.25434200
v 0.26785500 0.90018900 0.25434200
v 0.26785500 0.89437400 0.33688400
v 0.26785500 0.89437400 0.33688400
v 0.26785500 0.89437400 0.33688400
v 0.26785500 0.90018900 0.33688400
v 0.26785500 0.90018900 0.33688400
v 0.26785500 0.90018900 0.33688400
v 0.28929400 0.89437400 0.37097000
v 0.28929400 0.89437400 0.37097000
v 0.28929400 0.89437400 0.37097000
v 0.28929400 0.90018900 0.37097000
v 0.28929400 0.90018900 0.37097000
v 0.28929400 0.90018900 0.37097000
v 0.26785500 0.89437400 0.37097000
v 0.26785500 0.89437400 0.37097000
v 0.26785500 0.89437400 0.37097000
v 0.26785500 0.90018900 0.37097000
v 0.26785500 0.90018900 0.37097000
v 0.26785500 0.90018900 0.37097000
v 0.27885700 0.90018900 0.25434200
v 0.27885700 0.90018900 0.25434200
v 0.27885700 0.89437400 0.33688400
v 0.27885700 0.89437400 0.25434200
v 0.27885700 0.89437400 0.25434200
v 0.27885700 0.90018900 0.33688400
v 0.28766600 0.89437400 0.37347900
v 0.28766600 0.89437400 0.37347900
v 0.28766600 0.89437400 0.37347900
v 0.26972000 0.89437400 0.37369700
v 0.26972000 0.89437400 0.37369700
v 0.26972000 0.89437400 0.37369700
v 0.27885700 0.89437400 0.37087100
v 0.28449600 0.89437400 0.37702000
v 0.28449600 0.89437400 0.37702000
v 0.28449600 0.89437400 0.37702000
v 0.28074300 0.89437400 0.37890600
v 0.28074300 0.89437400 0.37890600
v 0.28074300 0.89437400 0.37890600
v 0.27677300 0.89437400 0.37895400
v 0.27677300 0.89437400 0.37895400
v 0.27677300 0.89437400 0.37895400
v 0.27297500 0.89437400 0.37715900
v 0.27297500 0.89437400 0.37715900
v 0.27297500 0.89437400 0.37715900
v 0.26972000 0.90018900 0.37369700
v 0.26972000 0.90018900 0.37369700
v 0.26972000 0.90018900 0.37369700
v 0.28766600 0.90018900 0.37347900
v 0.28766600 0.90018900 0.37347900
v 0.28766600 0.90018900 0.37347900
v 0.28766600 0.90018900 0.37347900
v 0.27885700 0.90018900 0.37087100
v 0.27297500 0.90018900 0.37715900
v 0.27297500 0.90018900 0.37715900
v 0.27297500 0.90018900 0.37715900
v 0.27677300 0.90018900 0.37895400
v 0.27677300 0.90018900 0.37895400
v 0.27677300 0.90018900 0.37895400
v 0.28074300 0.90018900 0.37890600
v 0.28074300 0.90018900 0.37890600
v 0.28074300 0.90018900 0.37890600
v 0.28449600 0.90018900 0.37702000
v 0.28449600 0.90018900 0.37702000
v 0.28449600 0.90018900 0.37702000
v 0.29390500 0.90018900 0.25434200
v 0.29390500 0.90018900 0.25434200
v 0.29390500 0.90018900 0.25434200
v 0.29390500 0.89437400 0.25434200
v 0.29390500 0.89437400 0.25434200
v 0.29390500 0.89437400 0.25434200
v 0.29390500 0.89437400 0.33688400
v 0.29390500 0.89437400 0.33688400
v 0.29390500 0.89437400 0.33688400
v 0.29390500 0.90018900 0.33688400
v 0.29390500 0.90018900 0.33688400
v 0.29390500 0.90018900 0.33688400
vn -1.00000000 0.00000000 0.00000000
vn 0.00000000 -1.00000000 0.00000000
vn 0.00000000 0.00000000 1.00000000
vn -1.00000000 0.00000000 0.00000000
vn 0.00000000 1.00000000 0.00000000
vn 0.00000000 0.00000000 1.00000000
vn -1.00000000 0.00000000 0.00000000
vn 0.00000000 -1.00000000 0.00000000
vn 0.00000000 0.00000000 -1.00000000
vn 0.00000000 0.00000000 -1.00000000
vn 0.00000000 1.00000000 0.00000000
vn -1.00000000 0.00000000 0.00000000
vn 0.00000000 -1.00000000 0.00000000
vn 1.00000000 0.00000000 0.00000000
vn 0.00000000 0.00000000 1.00000000
vn 1.00000000 0.00000000 0.00000000
vn 0.00000000 1.00000000 0.00000000
vn 0.00000000 0.00000000 1.00000000
vn 0.00000000 -1.00000000 0.00000000
vn 0.00000000 0.00000000 -1.00000000
vn 0.00000000 0.00000000 -1.00000000
vn 0.00000000 1.00000000 0.00000000
vn 0.00000000 0.00000000 -1.00000000
vn 0.00000000 -1.00000000 0.00000000
vn 0.00000000 1.00000000 0.00000000
vn 0.00000000 0.00000000 -1.00000000
vn 0.00000000 -1.00000000 0.00000000
vn -1.00000000 0.00000000 0.00000000
vn 0.00000000 0.00000000 1.00000000
vn 0.00000000 1.00000000 0.00000000
vn 0.00000000 0.00000000 1.00000000
vn -1.00000000 0.00000000 0.00000000
vn 0.83880000 0.00000000 0.54440000
vn 0.00000000 -1.00000000 0.00000000
vn 1.00000000 0.00000000 0.00000000
vn 1.00000000 0.00000000 0.00000000
vn 0.00000000 1.00000000 0.00000000
vn 0.83880000 0.00000000 0.54440000
vn -1.00000000 0.00000000 0.00000000
vn 0.00000000 -1.00000000 0.00000000
vn -0.82530000 0.00000000 0.56460000
vn -0.82530000 0.00000000 0.56460000
vn 0.00000000 1.00000000 0.00000000
vn -1.00000000 0.00000000 0.00000000
vn 0.00000000 0.00000000 -1.00000000
vn 0.00000000 1.00000000 0.00000000
vn 0.00000000 -1.00000000 0.00000000
vn 0.00000000 0.00000000 -1.00000000
vn 0.00000000 -1.00000000 0.00000000
vn 0.00000000 1.00000000 0.00000000
vn 0.74510000 0.00000000 0.66700000
vn 0.00000000 -1.00000000 0.00000000
vn 0.83880000 0.00000000 0.54440000
vn -0.72870000 0.00000000 0.68490000
vn -0.82530000 0.00000000 0.56460000
vn 0.00000000 -1.00000000 0.00000000
vn 0.00000000 -1.00000000 0.00000000
vn 0.00000000 -1.00000000 0.00000000
vn 0.74510000 0.00000000 0.66700000
vn 0.44910000 0.00000000 0.89350000
vn 0.44910000 0.00000000 0.89350000
vn 0.00000000 -1.00000000 0.00000000
vn 0.01210000 0.00000000 0.99990000
vn 0.01210000 0.00000000 0.99990000
vn -0.42730000 0.00000000 0.90410000
vn 0.00000000 -1.00000000 0.00000000
vn -0.72870000 0.00000000 0.68490000
vn -0.42730000 0.00000000 0.90410000
vn 0.00000000 -1.00000000 0.00000000
vn -0.82530000 0.00000000 0.56460000
vn 0.00000000 1.00000000 0.00000000
vn -0.72870000 0.00000000 0.68490000
vn 0.83880000 0.00000000 0.54440000
vn 0.74510000 0.00000000 0.66700000
vn 0.00000000 1.00000000 0.00000000
vn 0.00000000 1.00000000 0.00000000
vn 0.00000000 1.00000000 0.00000000
vn -0.42730000 0.00000000 0.90410000
vn -0.72870000 0.00000000 0.68490000
vn 0.00000000 1.00000000 0.00000000
vn 0.01210000 0.00000000 0.99990000
vn 0.00000000 1.00000000 0.00000000
vn -0.42730000 0.00000000 0.90410000
vn 0.01210000 0.00000000 0.99990000
vn 0.44910000 0.00000000 0.89350000
vn 0.00000000 1.00000000 0.00000000
vn 0.00000000 1.00000000 0.00000000
vn 0.44910000 0.00000000 0.89350000
vn 0.74510000 0.00000000 0.66700000
vn 0.00000000 0.00000000 -1.00000000
vn 0.00000000 1.00000000 0.00000000
vn 1.00000000 0.00000000 0.00000000
vn 0.00000000 -1.00000000 0.00000000
vn 0.00000000 0.00000000 -1.00000000
vn 1.00000000 0.00000000 0.00000000
vn 1.00000000 0.00000000 0.00000000
vn 0.00000000 0.00000000 1.00000000
vn 0.00000000 -1.00000000 0.00000000
vn 0.00000000 0.00000000 1.00000000
vn 1.00000000 0.00000000 0.00000000
vn 0.00000000 1.00000000 0.00000000
vt 0.37500000 0.00000000
vt 0.12500000 0.75000000
vt 0.37500000 1.00000000
vt 0.62500000 0.00000000
vt 0.87500000 0.75000000
vt 0.62500000 1.00000000
vt 0.37500000 0.25000000
vt 0.12500000 0.50000000
vt 0.37500000 0.25000000
vt 0.62500000 0.25000000
vt 0.87500000 0.50000000
vt 0.62500000 0.25000000
vt 0.37500000 0.75000000
vt 0.37500000 0.75000000
vt 0.37500000 0.75000000
vt 0.62500000 0.75000000
vt 0.62500000 0.75000000
vt 0.62500000 0.75000000
vt 0.37500000 0.50000000
vt 0.37500000 0.50000000
vt 0.62500000 0.50000000
vt 0.62500000 0.50000000
vt 0.37500000 0.37500000
vt 0.25000000 0.50000000
vt 0.75000000 0.50000000
vt 0.62500000 0.37500000
vt 0.25000000 0.75000000
vt 0.37500000 0.87500000
vt 0.37500000 0.87500000
vt 0.75000000 0.75000000
vt 0.62500000 0.87500000
vt 0.62500000 0.87500000
vt 0.37500000 0.75000000
vt 0.37500000 0.75000000
vt 0.37500000 0.75000000
vt 0.62500000 0.75000000
vt 0.62500000 0.75000000
vt 0.62500000 0.75000000
vt 0.37500000 0.87500000
vt 0.25000000 0.75000000
vt 0.37500000 0.87500000
vt 0.62500000 0.87500000
vt 0.75000000 0.75000000
vt 0.62500000 0.87500000
vt 0.62500000 0.43914500
vt 0.68585500 0.50000000
vt 0.31414500 0.75000000
vt 0.37500000 0.43914500
vt 0.31414500 0.50000000
vt 0.68585500 0.75000000
vt 0.37500000 0.75949500
vt 0.36550500 0.75000000
vt 0.37500000 0.75949500
vt 0.37500000 0.86412300
vt 0.37500000 0.86412300
vt 0.26087700 0.75000000
vt 0.31414500 0.75000000
vt 0.34702700 0.75000000
vt 0.37500000 0.77439800
vt 0.37500000 0.77439800
vt 0.37500000 0.78590800
vt 0.31414500 0.75000000
vt 0.37500000 0.78590800
vt 0.37500000 0.83672800
vt 0.37500000 0.83672800
vt 0.31414500 0.75000000
vt 0.37500000 0.84866600
vt 0.37500000 0.84866600
vt 0.27633400 0.75000000
vt 0.62500000 0.86412300
vt 0.73912300 0.75000000
vt 0.62500000 0.86412300
vt 0.62500000 0.75949500
vt 0.62500000 0.75949500
vt 0.68585500 0.75000000
vt 0.63449500 0.75000000
vt 0.68585500 0.75000000
vt 0.62500000 0.84866600
vt 0.62500000 0.84866600
vt 0.72014800 0.75000000
vt 0.62500000 0.83672800
vt 0.68585500 0.75000000
vt 0.62500000 0.83672800
vt 0.62500000 0.78590800
vt 0.62500000 0.78590800
vt 0.68585500 0.75000000
vt 0.68585500 0.75000000
vt 0.62500000 0.77439800
vt 0.62500000 0.77439800
vt 0.62500000 0.50000000
vt 0.62500000 0.50000000
vt 0.62500000 0.50000000
vt 0.37500000 0.50000000
vt 0.37500000 0.50000000
vt 0.37500000 0.50000000
vt 0.37500000 0.75000000
vt 0.37500000 0.75000000
vt 0.37500000 0.75000000
vt 0.62500000 0.75000000
vt 0.62500000 0.75000000
vt 0.62500000 0.75000000
f 22/22/22 17/17/17 101/101/101
f 101/101/101 91/91/91 22/22/22
f 1/1/1 4/4/4 12/12/12
f 12/12/12 7/7/7 1/1/1
f 48/48/48 45/45/45 21/21/21
f 21/21/21 20/20/20 48/48/48
f 29/29/29 31/31/31 6/6/6
f 6/6/6 3/3/3 29/29/29
f 49/49/49 19/19/19 13/13/13
f 13/13/13 47/47/47 49/49/49
f 25/25/25 11/11/11 5/5/5
f 5/5/5 30/30/30 25/25/25
f 46/46/46 25/25/25 30/30/30
f 30/30/30 50/50/50 46/46/46
f 8/8/8 24/24/24 27/27/27
f 27/27/27 2/2/2 8/8/8
f 50/50/50 30/30/30 43/43/43
f 50/50/50 43/43/43 71/71/71
f 50/50/50 71/71/71 77/77/77
f 9/9/9 10/10/10 26/26/26
f 26/26/26 23/23/23 9/9/9
f 47/47/47 13/13/13 34/34/34
f 47/47/47 34/34/34 52/52/52
f 47/47/47 52/52/52 57/57/57
f 17/17/17 50/50/50 77/77/77
f 17/17/17 77/77/77 76/76/76
f 17/17/17 76/76/76 37/37/37
f 14/14/14 16/16/16 36/36/36
f 36/36/36 35/35/35 14/14/14
f 32/32/32 28/28/28 39/39/39
f 39/39/39 44/44/44 32/32/32
f 27/27/27 47/47/47 57/57/57
f 27/27/27 57/57/57 56/56/56
f 27/27/27 56/56/56 40/40/40
f 55/55/55 70/70/70 42/42/42
f 42/42/42 41/41/41 55/55/55
f 22/22/22 46/46/46 50/50/50
f 50/50/50 17/17/17 22/22/22
f 24/24/24 49/49/49 47/47/47
f 47/47/47 27/27/27 24/24/24
f 23/23/23 26/26/26 45/45/45
f 45/45/45 48/48/48 23/23/23
f 52/52/52 58/58/58 57/57/57
f 58/58/58 62/62/62 57/57/57
f 62/62/62 66/66/66 57/57/57
f 66/66/66 69/69/69 57/57/57
f 69/69/69 56/56/56 57/57/57
f 71/71/71 80/80/80 77/77/77
f 80/80/80 82/82/82 77/77/77
f 82/82/82 86/86/86 77/77/77
f 86/86/86 87/87/87 77/77/77
f 87/87/87 75/75/75 77/77/77
f 72/72/72 54/54/54 67/67/67
f 67/67/67 79/79/79 72/72/72
f 78/78/78 68/68/68 65/65/65
f 65/65/65 83/83/83 78/78/78
f 81/81/81 64/64/64 63/63/63
f 63/63/63 84/84/84 81/81/81
f 85/85/85 61/61/61 60/60/60
f 60/60/60 88/88/88 85/85/85
f 89/89/89 59/59/59 51/51/51
f 51/51/51 74/74/74 89/89/89
f 33/33/33 38/38/38 73/73/73
f 73/73/73 53/53/53 33/33/33
f 95/95/95 92/92/92 100/100/100
f 100/100/100 96/96/96 95/95/95
f 18/18/18 15/15/15 97/97/97
f 97/97/97 99/99/99 18/18/18
f 20/20/20 21/21/21 90/90/90
f 90/90/90 94/94/94 20/20/20
f 13/13/13 19/19/19 93/93/93
f 93/93/93 98/98/98 13/13/13

