mtllib material.mtl
usemtl material_0
v 0.29733800 0.89884500 0.32594500
v -0.29633200 0.89884500 0.31375300
v 0.27139200 1.30369300 0.32541200
v -0.27038500 1.30369300 0.31428600
v 0.27139200 0.91734800 0.32541200
v -0.27038500 0.91734800 0.31428600
v -0.25602500 1.30369300 0.31458100
vn 0.02050000 -0.00000000 -0.99980000
vn 0.02050000 -0.00000000 -0.99980000
vn 0.02050000 -0.00000000 -0.99980000
vn 0.02050000 -0.00000000 -0.99980000
vn 0.02050000 -0.00000000 -0.99980000
vn 0.02050000 -0.00000000 -0.99980000
vn 0.02050000 -0.00000000 -0.99980000
vt 0.54309300 0.72260800
vt 0.54309300 0.02739200
vt 0.62500000 0.72260800
vt 0.62500000 0.02739200
vt 0.54309300 0.72260800
vt 0.54309300 0.02739200
vt 0.86848500 0.72260800
f 1/1/1 2/2/2 6/6/6
f 6/6/6 5/5/5 1/1/1
f 5/5/5 6/6/6 4/4/4
f 5/5/5 4/4/4 7/7/7
f 5/5/5 7/7/7 3/3/3

